<?xml version="1.0" encoding="UTF-8"?>
<!DOCTYPE svg PUBLIC "-//W3C//DTD SVG 1.1//EN" "http://www.w3.org/Graphics/SVG/1.1/DTD/svg11.dtd">
<!-- Creator: CorelDRAW -->
<svg xmlns="http://www.w3.org/2000/svg" xml:space="preserve" width="119.062mm" height="13.229mm" version="1.1" style="shape-rendering:geometricPrecision; text-rendering:geometricPrecision; image-rendering:optimizeQuality; fill-rule:evenodd; clip-rule:evenodd"
viewBox="0 0 11906.24 1322.9"
 xmlns:xlink="http://www.w3.org/1999/xlink"
 xmlns:xodm="http://www.corel.com/coreldraw/odm/2003">
 <defs>
  <style type="text/css">
   <![CDATA[
    .fil1 {fill:#00A0FF}
    .fil0 {fill:#00A0FF;fill-rule:nonzero}
    .fnt0 {font-weight:normal;font-size:846.67px;font-family:'优设标题黑'}
   ]]>
  </style>
 </defs>
 <g id="圖層_x0020_1">
  <metadata id="CorelCorpID_0Corel-Layer"/>
  <g id="_2564076439136">
   <path class="fil0" d="M3869.35 226.65l0 0 0 0 0 0 0 0c-18.52,-13.23 -37.04,-26.46 -58.21,-37.04 -13.23,-7.94 -31.75,-5.29 -42.33,7.94l-124.36 164.04 -7.93 10.58c-13.23,18.52 -34.4,26.46 -55.57,26.46l-23.81 0c-60.85,2.65 -121.71,34.4 -161.39,87.31 -31.75,42.34 -47.63,92.61 -44.98,142.88 0,7.94 5.29,15.87 13.23,21.16 15.87,7.94 29.1,23.82 34.39,42.34 5.29,29.1 -13.23,55.56 -39.69,63.5 -31.75,10.58 -66.14,-10.59 -74.08,-42.34 -5.29,-18.52 0,-34.39 10.58,-47.62 5.3,-7.94 7.94,-15.88 7.94,-26.46 -5.29,-63.5 10.59,-129.65 52.92,-185.21 52.92,-68.79 132.29,-105.83 214.31,-105.83 15.88,0 29.11,-7.94 39.69,-21.17l113.77 -150.81c7.94,-10.58 2.65,-29.1 -10.58,-31.75 -190.5,-52.92 -402.17,10.58 -531.82,177.27 -164.04,214.31 -124.35,523.88 89.96,690.56 21.17,15.88 39.69,29.11 63.5,42.34 13.23,7.93 31.75,5.29 42.34,-7.94l124.35 -164.04 7.94 -10.59c13.23,-18.52 34.39,-26.45 55.56,-26.45l23.81 0c60.86,-2.65 121.71,-34.4 161.4,-87.32 31.75,-42.33 47.62,-92.6 44.98,-142.87 0,-7.94 -5.29,-15.88 -13.23,-21.17 -15.88,-7.94 -29.11,-23.81 -34.4,-42.33 -5.29,-29.11 13.23,-55.56 39.69,-63.5 31.75,-10.59 66.15,10.58 74.08,42.33 5.29,18.52 0,34.4 -10.58,47.63 -5.29,7.93 -7.94,15.87 -7.94,26.45 5.29,63.51 -10.58,129.65 -52.91,185.21 -52.92,68.8 -132.3,105.84 -214.32,105.84 -15.87,0 -29.1,7.93 -39.68,21.16l-111.13 142.88c-7.94,10.58 -2.65,29.1 10.58,31.75 190.5,55.56 404.82,-7.94 531.82,-177.27 164.04,-214.31 119.06,-523.88 -97.9,-687.92z"/>
   <g>
    <path class="fil0" d="M4684.27 382.75l0 -10.58c0,-10.58 -7.94,-15.87 -15.88,-15.87l-383.64 0c-7.94,0 -15.88,7.93 -15.88,15.87l0 23.81c0,7.94 7.94,15.88 15.88,15.88l325.43 0c10.59,0 15.88,7.94 15.88,18.52 -7.94,60.85 -37.04,174.62 -127,283.1 -5.29,7.94 -18.52,7.94 -23.81,0 -74.09,-95.25 -97.9,-193.14 -103.19,-230.18 -2.65,-7.94 -7.94,-13.23 -15.88,-13.23l-13.23 0 -10.58 0c-7.94,0 -15.87,7.93 -13.23,18.52 7.94,42.33 34.4,156.1 124.36,264.58 5.29,5.29 5.29,15.88 0,21.17 -105.84,97.89 -203.73,119.06 -238.13,124.35 -7.94,0 -13.23,7.94 -13.23,15.88l0 23.81c0,7.94 7.94,15.88 15.88,15.88 39.68,-5.3 150.81,-29.11 269.87,-140.23 5.29,-5.3 15.88,-5.3 21.17,0 58.21,52.91 132.29,105.83 232.83,137.58 7.94,2.65 15.88,-2.65 18.52,-10.58l7.94 -21.17c2.65,-7.94 -2.64,-15.88 -10.58,-18.52 -92.61,-29.11 -158.75,-76.73 -211.67,-124.36 -5.29,-5.29 -5.29,-15.87 0,-21.16 145.52,-177.27 148.17,-365.13 148.17,-373.07z"/>
    <path class="fil0" d="M4948.85 332.48l-23.81 0c-7.94,0 -15.88,7.94 -15.88,15.88l0 82.02c0,7.94 -7.93,15.87 -15.87,15.87l-55.56 0c-7.94,0 -15.88,7.94 -15.88,15.88l0 23.81c0,7.94 7.94,15.88 15.88,15.88l55.56 0c7.94,0 15.87,7.93 15.87,15.87l0 119.07c0,7.93 -7.93,15.87 -15.87,15.87l-55.56 0c-7.94,0 -15.88,7.94 -15.88,15.88l0 23.81c0,7.94 7.94,15.87 15.88,15.87l55.56 0c7.94,0 15.87,7.94 15.87,15.88l0 113.77c0,23.81 -10.58,63.5 -71.43,68.79 -7.94,0 -13.23,7.94 -13.23,15.87l0 15.88c0,7.94 7.93,15.88 15.87,15.88 60.86,-5.3 124.36,-39.69 124.36,-124.36l0 -113.77c0,-7.94 7.93,-15.87 15.87,-15.87l50.27 0c7.94,0 15.88,-7.94 15.88,-15.88l0 -23.81c0,-7.94 -7.94,-15.88 -15.88,-15.88l-50.27 0c-7.94,0 -15.87,-7.93 -15.87,-15.87l0 -119.07c0,-7.93 7.93,-15.87 15.87,-15.87l50.27 0c7.94,0 15.88,-7.94 15.88,-15.88l0 -23.81c0,-7.94 -7.94,-15.87 -15.88,-15.87l-50.27 0c-7.94,0 -15.87,-7.94 -15.87,-15.88l0 -76.73c0,-7.93 -5.3,-13.23 -15.88,-13.23z"/>
    <path class="fil0" d="M5070.56 933.09c0,7.94 7.94,15.87 15.87,15.87l171.98 0c76.73,0 137.59,-58.2 137.59,-132.29l0 -362.48c0,-7.94 -7.94,-15.87 -15.88,-15.87l-293.69 0c-7.93,0 -15.87,7.93 -15.87,15.87l0 478.9zm190.5 -37.04l-119.06 0c-7.94,0 -15.88,-7.94 -15.88,-15.88l0 -164.04c0,-7.94 7.94,-15.87 15.88,-15.87l187.85 0c7.94,0 15.88,7.93 15.88,15.87l0 100.54c0,44.98 -39.69,79.38 -84.67,79.38zm84.67 -388.94l0 124.35c0,7.94 -7.94,15.88 -15.88,15.88l-187.85 0c-7.94,0 -15.88,-7.94 -15.88,-15.88l0 -124.35c0,-7.94 7.94,-15.88 15.88,-15.88l187.85 0c7.94,2.65 15.88,7.94 15.88,15.88z"/>
    <path class="fil0" d="M5306.04 329.84l-153.46 0c-7.94,0 -15.87,7.94 -15.87,15.87l0 23.82c0,7.93 7.93,15.87 15.87,15.87l153.46 0c7.94,0 15.87,-7.94 15.87,-15.87l0 -23.82c0,-7.93 -5.29,-15.87 -15.87,-15.87z"/>
    <path class="fil0" d="M5890.77 353.65l-317.5 0c-7.94,0 -15.88,7.94 -15.88,15.88l0 23.81c0,7.94 7.94,15.87 15.88,15.87l317.5 0c7.94,0 15.87,-7.93 15.87,-15.87l0 -23.81c0,-7.94 -7.93,-15.88 -15.87,-15.88z"/>
    <path class="fil0" d="M5755.83 626.17l222.25 0c7.94,0 15.88,-7.94 15.88,-15.87l0 -23.82c0,-7.93 -7.94,-15.87 -15.88,-15.87l-492.12 0c-7.94,0 -15.88,7.94 -15.88,15.87l0 23.82c0,7.93 7.94,15.87 15.88,15.87l150.81 0c13.23,0 18.52,13.23 13.23,23.81l-100.54 182.57c-2.65,5.29 -5.3,7.93 -5.3,13.23 -7.93,23.81 -5.29,50.27 10.59,71.43 15.87,21.17 42.33,37.05 71.43,37.05l275.17 0c13.23,0 23.81,-5.3 29.11,-15.88 5.29,-10.58 7.93,-23.81 2.64,-34.4l-63.5 -124.35c-2.64,-7.94 -13.23,-10.58 -21.17,-5.29l-21.16 10.58c-7.94,2.65 -10.59,13.23 -5.29,21.17l37.04 74.08c5.29,10.59 -2.65,21.17 -13.23,21.17l-219.61 0c-10.58,0 -21.16,-5.29 -26.45,-13.23 -2.65,-2.65 -7.94,-10.58 -5.3,-21.17 0,-2.64 0,-2.64 2.65,-5.29l121.71 -214.31c7.94,-13.23 21.17,-21.17 37.04,-21.17z"/>
   </g>
  </g>
  <text x="441.16" y="916.97"  class="fil1 fnt0">本站由</text>
  <text x="6105.01" y="916.14"  class="fil1 fnt0">提供</text>
  <text x="9917.57" y="916.14"  class="fil1 fnt0">加速</text>
  <text x="7764.49" y="916.14"  class="fil1 fnt0">CDN</text>
 </g>
</svg>
