<?xml version="1.0" standalone="no"?><!DOCTYPE svg PUBLIC "-//W3C//DTD SVG 1.1//EN" "http://www.w3.org/Graphics/SVG/1.1/DTD/svg11.dtd"><svg t="1717159251355" class="icon" viewBox="0 0 2293 1024" version="1.1" xmlns="http://www.w3.org/2000/svg" p-id="16788" xmlns:xlink="http://www.w3.org/1999/xlink" width="71.65625" height="32"><path d="M1431.004228 422.813188a254.738555 254.738555 0 0 1 32.143353-123.648175l-0.659697 1.311897-0.659697 1.379366a215.347907 215.347907 0 0 1 84.90598-88.020798l1.079504-0.539752 1.139476-0.539752a251.014641 251.014641 0 0 1 120.82947-30.522223h4.685347q107.637408 0 175.876673 69.61863t68.78089 176.116562c0 71.537748-23.205585 130.723049-69.318768 177.975708s-104.398896 70.818079-174.557279 70.818079a274.574439 274.574439 0 0 1-125.634762-30.282333l1.499311 0.719669a204.129313 204.129313 0 0 1-88.628019-84.250031l-0.539752-1.019532-0.539752-1.019531q-30.402278-56.598989-30.46225-137.979714z m127.364592 6.596968c0 47.252659 11.033055 83.410417 33.580817 107.877298a109.054257 109.054257 0 0 0 165.023535 0.299862l0.119945-0.119945 0.059973-0.187414c22.008011-24.524979 33.041065-61.096922 33.041065-108.477022s-11.033055-82.572677-33.041065-107.277574a109.637114 109.637114 0 0 0-165.083508-0.239889l-0.119945 0.119945-0.059972 0.187413c-22.489664 24.465007-33.580817 60.624639-33.580817 107.877298z m-128.086135 235.181917h-124.425943V423.532857c0-50.789159-2.578815-83.470389-8.096279-98.641542a70.484482 70.484482 0 0 0-26.02429-34.660322l-0.47978-0.299862a74.388313 74.388313 0 0 0-41.439081-12.468645h-3.238511a100.98609 100.98609 0 0 0-58.0983 18.229748l0.299862-0.23989A89.656921 89.656921 0 0 0 1133.460345 340.90583l-0.187414 0.599724-0.187413 0.659697c-6.656941 19.849003-9.653688 55.646926-9.653689 108.65694V664.532101h-123.816847V190.987853h115.072116v69.318768c41.435333-52.475884 93.305869-78.374606 156.089516-78.374607h1.686725a194.723011 194.723011 0 0 1 75.615874 15.111181l-1.259421-0.47978a127.343976 127.343976 0 0 1 51.810564 37.956931l0.187414 0.23989a137.925364 137.925364 0 0 1 24.285089 51.390757l0.187414 0.95956a374.376073 374.376073 0 0 1 7.134846 73.876673l-0.187414 10.793165v-0.539752z m-917.284069-473.59485h132.22236l112.914982 336.100539 110.036306-336.104287h128.80393l-165.263424 455.188934-30.402279 82.99061a335.493317 335.493317 0 0 1-32.741203 65.842241l0.779642-1.311898 0.779642-1.379366a132.239227 132.239227 0 0 1-33.340928 35.140101l-0.359834 0.23989-0.419807 0.23989a158.055487 158.055487 0 0 1-46.233128 20.802939l-1.139476 0.23989a236.728082 236.728082 0 0 1-61.88406 7.97446h-1.919118a332.788935 332.788935 0 0 1-75.076123-8.808452l2.218981 0.419807 2.21898 0.419807-10.307763-98.281707a252.585169 252.585169 0 0 0 52.708277 6.184657h0.187414c28.783022 0 50.191309-8.45424 63.983095-25.424565a180.271528 180.271528 0 0 0 31.298116-63.263426l0.299862-1.259421 0.299863-1.259422zM0.23989 451.8361l127.304619-11.932642q11.752724 64.095544 46.832852 94.445346t95.28496 29.986219c42.214974 0 74.116563-9.053964 95.704767-26.800183s31.957813-38.865888 31.957813-62.553127v-2.04656a59.785025 59.785025 0 0 0-13.431952-37.83886l0.059973 0.119945 0.059972 0.059972c-9.053964-10.553275-24.704896-20.148865-47.192687-27.763491-15.411043-5.937271-50.431198-15.291098-104.878675-29.202829-70.518217-17.270188-119.630022-38.856518-147.933265-64.282957a171.38811 171.38811 0 0 1-59.904969-130.303242v-2.329554a164.823002 164.823002 0 0 1 28.604979-93.006008l-0.412311 0.536004a179.16766 179.16766 0 0 1 79.034304-65.594854l1.139476-0.419808 1.199449-0.419807c35.320018-14.691373 77.776756-22.489664 128.084261-22.489664q122.268809 0 184.212841 54.02767c41.255415 36.519467 62.783646 84.489921 64.82271 144.634781l-131.862525 4.377988c-5.80983-33.041065-17.510078-57.086265-36.159632-71.897583S296.475624 109.074872 260.076102 109.074872c-38.076876 0-67.939402 7.854515-89.407661 23.801562A47.175819 47.175819 0 0 0 149.799906 172.032814v0.959559a49.719026 49.719026 0 0 0 19.369224 39.396269l0.059972 0.059973c16.370602 14.331539 56.666458 28.783022 120.469636 43.654313s110.995865 30.94203 141.458115 47.192686a184.396507 184.396507 0 0 1 71.417804 65.969683l0.479779 0.779641c17.090271 27.583573 26.084262 62.843619 26.084263 104.338924a192.683948 192.683948 0 0 1-31.6617 105.95818l0.47978-0.719669a190.024545 190.024545 0 0 1-86.648929 72.617252l-1.259421 0.47978c-37.956931 15.530987-85.149618 23.801562-141.698005 23.801561q-123.408285 0-189.728431-57.745962c-44.317758-38.494809-70.287698-94.081763-78.614496-167.178794z" fill="#1296db" p-id="16789" data-spm-anchor-id="a313x.search_index.0.i11.78c13a81SXFfVp" class="selected"></path></svg>