<?xml version="1.0" standalone="no"?><!DOCTYPE svg PUBLIC "-//W3C//DTD SVG 1.1//EN" "http://www.w3.org/Graphics/SVG/1.1/DTD/svg11.dtd"><svg t="1717327817558" class="icon" viewBox="0 0 1024 1024" version="1.1" xmlns="http://www.w3.org/2000/svg" p-id="4280" width="256" height="256" xmlns:xlink="http://www.w3.org/1999/xlink"><path d="M512 512m-85.36064 0a85.36064 85.36064 0 1 0 170.72128 0 85.36064 85.36064 0 1 0-170.72128 0Z" fill="#242424" p-id="4281"></path><path d="M259.35872 259.35872m-85.36064 0a85.36064 85.36064 0 1 0 170.72128 0 85.36064 85.36064 0 1 0-170.72128 0Z" fill="#242424" fill-opacity=".2" p-id="4282"></path><path d="M764.64128 259.35872m-85.36064 0a85.36064 85.36064 0 1 0 170.72128 0 85.36064 85.36064 0 1 0-170.72128 0Z" fill="#242424" fill-opacity=".2" p-id="4283"></path><path d="M764.64128 512m-85.36064 0a85.36064 85.36064 0 1 0 170.72128 0 85.36064 85.36064 0 1 0-170.72128 0Z" fill="#242424" p-id="4284"></path><path d="M764.64128 764.64128m-85.36064 0a85.36064 85.36064 0 1 0 170.72128 0 85.36064 85.36064 0 1 0-170.72128 0Z" fill="#242424" fill-opacity=".2" p-id="4285"></path><path d="M512 259.35872m-85.36064 0a85.36064 85.36064 0 1 0 170.72128 0 85.36064 85.36064 0 1 0-170.72128 0Z" fill="#242424" fill-opacity=".2" p-id="4286"></path><path d="M259.35872 764.64128m-85.36064 0a85.36064 85.36064 0 1 0 170.72128 0 85.36064 85.36064 0 1 0-170.72128 0Z" fill="#242424" fill-opacity=".2" p-id="4287"></path><path d="M259.35872 512m-85.36064 0a85.36064 85.36064 0 1 0 170.72128 0 85.36064 85.36064 0 1 0-170.72128 0Z" fill="#242424" p-id="4288"></path><path d="M512 764.64128m-85.36064 0a85.36064 85.36064 0 1 0 170.72128 0 85.36064 85.36064 0 1 0-170.72128 0Z" fill="#242424" p-id="4289"></path></svg>