<?xml version="1.0" standalone="no"?><!DOCTYPE svg PUBLIC "-//W3C//DTD SVG 1.1//EN" "http://www.w3.org/Graphics/SVG/1.1/DTD/svg11.dtd"><svg t="1717156541934" class="icon" viewBox="0 0 1024 1024" version="1.1" xmlns="http://www.w3.org/2000/svg" p-id="5480" width="32" height="32" xmlns:xlink="http://www.w3.org/1999/xlink"><path d="M951.466667 593.066667H874.666667V179.2c0-25.6-12.8-38.4-38.4-38.4-25.6 0-38.4 12.8-38.4 38.4v411.733333h-234.666667V179.2c0-25.6-12.8-38.4-38.4-38.4-25.6 0-38.4 12.8-38.4 38.4v411.733333H253.866667V179.2c0-25.6-12.8-38.4-38.4-38.4s-38.4 12.8-38.4 38.4v411.733333H72.533333c-34.133333 0-51.2 17.066667-51.2 51.2v130.133334c0 34.133333 17.066667 51.2 51.2 51.2h878.933334c34.133333 0 51.2-17.066667 51.2-51.2v-130.133334c0-32-17.066667-49.066667-51.2-49.066666zM166.4 750.933333c-25.6 0-38.4-12.8-38.4-38.4s12.8-38.4 38.4-38.4 38.4 12.8 38.4 38.4-12.8 38.4-38.4 38.4z m128 0c-25.6 0-38.4-12.8-38.4-38.4s12.8-38.4 38.4-38.4c25.6 0 38.4 12.8 38.4 38.4s-12.8 38.4-38.4 38.4z m130.133333 0c-25.6 0-38.4-12.8-38.4-38.4s12.8-38.4 38.4-38.4c25.6 0 38.4 12.8 38.4 38.4s-12.8 38.4-38.4 38.4z m465.066667 0H552.533333c-25.6 0-38.4-12.8-38.4-38.4s12.8-38.4 38.4-38.4h334.933334c25.6 0 38.4 12.8 38.4 38.4s-10.666667 38.4-36.266667 38.4z" fill="#00CC99" p-id="5481"></path></svg>